<?xml version="1.0" encoding="UTF-8" standalone="no"?>
<!DOCTYPE svg PUBLIC "-//W3C//DTD SVG 1.1//EN" "http://www.w3.org/Graphics/SVG/1.1/DTD/svg11.dtd">
<svg width="100%" height="100%" viewBox="0 0 512 512" version="1.1" xmlns="http://www.w3.org/2000/svg" xmlns:xlink="http://www.w3.org/1999/xlink" xml:space="preserve" xmlns:serif="http://www.serif.com/" style="fill-rule:evenodd;clip-rule:evenodd;stroke-linejoin:round;stroke-miterlimit:2;">
    <g transform="matrix(0.5,0,0,0.5,56.7575,0.367339)">
        <path d="M194.059,748.3C201.259,750.1 203.659,751.4 205.059,754.3C207.959,759.8 206.059,771.1 201.859,773.9C199.759,775.3 199.259,775.3 197.059,773.8C193.859,771.7 187.659,758.6 186.859,752.3C186.159,746.5 186.559,746.3 194.059,748.3Z" style="fill:rgb(142,190,227);"/>
    </g>
    <g transform="matrix(0.5,0,0,0.5,56.7575,0.367339)">
        <path d="M89.559,812.4C93.959,815.4 95.359,817.8 93.759,819.4C92.359,820.8 89.159,818.2 86.259,813.3C84.059,809.6 85.059,809.4 89.559,812.4Z" style="fill:rgb(160,165,170);"/>
    </g>
    <g transform="matrix(0.5,0,0,0.5,56.7575,0.367339)">
        <path d="M130.959,836.5C135.159,844 144.859,867.8 144.359,869.3C143.759,871.1 111.559,845.6 111.559,843.3C111.559,841.8 125.559,829.1 126.559,829.7C127.059,830 129.059,833.1 130.959,836.5Z" style="fill:rgb(160,165,170);"/>
    </g>
    <g transform="matrix(0.5,0,0,0.5,56.7575,0.367339)">
        <path d="M173.359,843.3C178.859,844.5 183.859,845.8 184.659,846.2C186.459,847.4 185.059,849.9 176.659,860.4L170.159,868.7L167.459,860.2C162.659,844.9 161.659,841.2 162.559,841.2C163.059,841.2 167.959,842.1 173.359,843.3Z" style="fill:rgb(160,165,170);"/>
    </g>
    <g transform="matrix(0.5,0,0,0.5,56.7575,0.367339)">
        <path d="M228.759,878.9C239.759,898 242.259,902.9 241.259,903.8C239.859,905.2 200.059,895.8 191.759,892.2C187.959,890.5 187.559,890 188.459,888.3C190.059,885.4 204.159,866.5 209.359,860.3L213.959,855L215.959,857.7C217.159,859.2 222.859,868.8 228.759,878.9Z" style="fill:rgb(160,165,170);"/>
    </g>
    <g transform="matrix(0.5,0,0,0.5,56.7575,0.367339)">
        <path d="M275.159,854.5C275.659,855.9 272.159,866.1 266.559,879.6C263.559,886.9 263.159,887.3 261.859,885.6C258.959,881.7 245.359,856.1 245.859,855.6C246.359,855.1 261.659,853.8 271.359,853.3C273.259,853.3 274.859,853.8 275.159,854.5Z" style="fill:rgb(160,165,170);"/>
    </g>
    <g transform="matrix(0.5,0,0,0.5,56.7575,0.367339)">
        <path d="M338.559,889.2C338.559,891 332.259,893.1 314.059,897.7C294.659,902.6 286.559,903.9 286.559,902.3C286.559,900.4 301.559,863.1 304.859,856.8C305.759,855 307.559,856.5 322.159,871.5C331.159,880.6 338.559,888.6 338.559,889.2Z" style="fill:rgb(160,165,170);"/>
    </g>
    <g transform="matrix(0.5,0,0,0.5,56.7575,0.367339)">
        <path d="M363.559,840.2C363.559,844.7 360.559,870.5 359.959,871.1C359.459,871.7 346.459,859.9 339.459,852.5L333.259,845.8L336.359,844.5C339.659,843.2 361.559,836.3 362.859,836.2C363.259,836.2 363.559,838 363.559,840.2Z" style="fill:rgb(160,165,170);"/>
    </g>
    <g transform="matrix(0.5,0,0,0.5,56.7575,0.367339)">
        <path d="M405.559,826C412.459,830.1 424.459,838.6 424.559,839.4C424.659,841.3 389.059,868 387.859,866.8C387.259,866.2 393.659,828.9 394.659,826.9C395.559,825.4 398.659,823.5 400.559,823.3C400.859,823.3 403.059,824.5 405.559,826Z" style="fill:rgb(160,165,170);"/>
    </g>
    <g transform="matrix(0.5,0,0,0.5,56.7575,0.367339)">
        <path d="M465.459,784.4C462.259,790.5 449.059,811 446.759,813.4C445.359,815 443.459,816.2 442.559,816.2C441.759,816.2 438.659,814.6 435.759,812.7C432.059,810.2 430.759,808.7 431.259,807.8C432.759,805.2 465.459,780.8 466.359,781.6C466.559,781.8 466.159,783.1 465.459,784.4Z" style="fill:rgb(160,165,170);"/>
    </g>
    <g transform="matrix(0.5,0,0,0.5,56.7575,0.367339)">
        <path d="M686.959,623.4C693.659,637.3 694.659,642.1 695.259,662.8C695.559,674.1 695.459,681.6 694.759,682.7C693.959,684.3 693.459,684 690.959,680.1C689.459,677.7 686.459,671.4 684.259,666.2L680.259,656.7L679.759,638C679.359,619.4 679.759,614.2 681.559,614.2C682.059,614.2 684.559,618.4 686.959,623.4Z" style="fill:rgb(160,165,170);"/>
    </g>
    <g transform="matrix(0.5,0,0,0.5,56.7575,0.367339)">
        <path d="M649.559,588.3C649.559,588.9 648.059,594 646.159,599.5C644.259,605.1 642.159,613.2 641.659,617.5C637.159,650.6 647.859,687.6 669.059,711.7C672.059,715.1 674.559,718.2 674.559,718.6C674.559,718.9 670.359,719.2 665.359,719.2C654.859,719.2 650.159,717.6 642.859,711.6C626.959,698.5 612.559,662.2 612.559,634.9C612.559,613.9 621.459,595.9 634.859,589.6C640.259,587.1 649.559,586.3 649.559,588.3Z" style="fill:rgb(160,165,170);"/>
    </g>
    <g transform="matrix(0.5,0,0,0.5,56.7575,0.367339)">
        <path d="M734.959,462.2L738.859,462.2L738.259,466.9C735.959,485.7 705.459,572.2 701.159,572.2C700.559,572.2 696.359,569.6 691.959,566.3C675.359,554.1 667.859,551 647.059,547.8C645.459,547.6 638.959,547.8 632.759,548.5C623.059,549.4 621.259,549.3 619.959,548C619.159,547.2 615.159,538.9 611.159,529.6C607.159,520.3 602.659,510.4 601.259,507.5L598.659,502.4L605.159,496.3C614.459,487.5 620.159,483.2 629.359,477.8C639.559,471.8 652.459,466.6 661.859,464.5C669.759,462.8 705.759,461.1 721.559,461.8C726.759,462 732.859,462.2 734.959,462.2Z" style="fill:rgb(142,190,227);"/>
    </g>
    <g transform="matrix(0.5,0,0,0.5,56.7575,0.367339)">
        <path d="M733.559,124.9C733.559,127.6 709.759,165.8 696.359,184.4C685.959,198.9 668.659,221.5 660.859,230.8L656.459,236L652.259,235C646.659,233.7 635.459,234.7 627.459,237.2C614.859,241 605.559,247.8 557.059,288.1C518.459,320.2 455.259,370.2 447.959,374.5C447.059,375 380.059,353 378.859,351.9C378.159,351.2 396.359,315.6 401.159,308.6C404.159,304 410.059,297.1 414.359,293.2C444.759,265 576.859,193.3 702.059,137C730.159,124.3 733.559,123 733.559,124.9Z" style="fill:rgb(142,190,227);"/>
    </g>
    <g transform="matrix(0.5,0,0,0.5,56.7575,0.367339)">
        <path d="M241.459,132.2C263.259,219.9 272.559,265.1 274.159,291.2C274.659,301 272.759,332.3 270.959,341C270.159,345.1 269.259,345.5 255.059,348.2C237.459,351.6 217.159,356.9 201.259,362.4C193.059,365.1 186.159,367.1 185.859,366.9C185.659,366.6 187.459,352 190.059,334.5C196.559,289.7 218.859,139.8 223.559,109C225.759,94.8 227.559,82.7 227.559,82C227.659,78.1 230.459,88.2 241.459,132.2Z" style="fill:rgb(142,190,227);"/>
    </g>
    <g transform="matrix(0.5,0,0,0.5,56.7575,0.367339)">
        <path d="M383.459,463.8C383.959,464.2 376.459,483.2 375.859,483.2C373.959,483.2 356.559,475.1 351.059,471.7C339.459,464.5 333.659,456.6 335.059,450.2L335.659,447.3L359.359,455.4C372.359,459.8 383.259,463.6 383.459,463.8Z" style="fill:rgb(250,224,118);"/>
    </g>
    <g transform="matrix(0.5,0,0,0.5,56.7575,0.367339)">
        <path d="M393.059,393.2C407.959,398.2 420.659,402.6 421.459,403.1C422.459,403.8 421.159,406.6 415.559,416.1C411.559,422.8 407.859,428.5 407.359,428.8C406.859,429.1 403.259,428.4 399.259,427.2C387.259,423.7 356.659,413 355.059,411.8C353.659,410.8 354.059,409.3 358.059,399.4C363.059,386.8 364.259,384.2 365.359,384.2C365.759,384.2 378.259,388.3 393.059,393.2Z" style="fill:rgb(250,224,118);"/>
    </g>
    <g transform="matrix(0.5,0,0,0.5,56.7575,0.367339)">
        <path d="M633.459,262.9C620.259,280 588.359,314.3 526.159,378.2C462.359,443.6 455.459,451.1 438.559,472.7C427.759,486.5 425.159,488.2 414.559,488.9L406.359,489.5L408.059,486.1C413.159,476.2 440.759,426.2 446.359,416.7C457.459,398 467.659,389 536.059,337.2C546.559,329.3 567.659,312.6 583.059,300.2C624.659,266.6 638.559,256.3 633.459,262.9Z" style="fill:rgb(250,224,118);"/>
    </g>
    <g transform="matrix(0.5,0,0,0.5,56.7575,0.367339)">
        <path d="M186.559,188.4C179.359,237.5 170.059,301 165.759,329.4L158.059,381.1L145.359,389.1C130.459,398.4 122.659,404.1 105.059,418.5C97.959,424.4 91.759,429.2 91.459,429.2C90.759,429.2 90.259,426.6 87.359,405.2C84.859,386.2 83.859,348.6 85.459,336C91.859,288.3 122.159,223.3 190.159,112.1C195.059,104 199.159,97.8 199.359,98.3C199.559,98.7 193.759,139.3 186.559,188.4Z" style="fill:rgb(250,224,118);"/>
    </g>
    <g transform="matrix(0.5,0,0,0.5,56.7575,0.367339)">
        <path d="M704.959,756.8C715.159,770.6 727.959,794.4 737.559,817.1C747.259,840.3 758.759,874.3 757.259,875.8C756.359,876.8 731.859,871.2 719.559,867.1C704.059,862.1 687.659,854.3 667.659,842.4C659.159,837.3 650.759,833 649.059,832.6C644.259,831.7 640.359,833.9 625.059,846.2C602.559,864.3 580.559,877.7 567.259,881.7C558.059,884.4 558.259,882.2 568.659,870.7C597.659,838.6 615.859,808.7 630.559,769.1C633.259,761.9 635.859,755.5 636.359,755C636.859,754.5 640.559,754.9 645.659,756.1C664.559,760.5 674.459,759.8 689.359,753.3C694.159,751.2 698.559,749.6 699.059,749.9C699.659,750.1 702.259,753.2 704.959,756.8Z" style="fill:rgb(192,228,244);"/>
    </g>
    <g transform="matrix(0.5,0,0,0.5,56.7575,0.367339)">
        <path d="M84.759,870C95.159,878.3 107.559,890.2 107.559,891.8C107.559,893.5 105.159,894.8 97.359,897.2C86.459,900.5 77.159,902.3 69.459,902.5L62.059,902.7L62.259,898.9C62.659,893.3 74.959,864.2 76.959,864.2C77.259,864.2 80.759,866.8 84.759,870Z" style="fill:rgb(192,228,244);"/>
    </g>
    <g transform="matrix(0.5,0,0,0.5,56.7575,0.367339)">
        <path d="M319.159,384.6C318.859,385.9 314.159,397 308.659,409.4C296.459,437.2 295.459,439.9 294.759,448.9C293.759,464.1 299.859,477.5 314.159,491.3C335.559,511.8 372.559,526.5 406.059,527.9C426.159,528.7 437.059,526.1 447.959,518C451.059,515.7 463.659,502.8 475.959,489.3C488.259,475.8 500.859,462.2 503.959,459.2L509.559,453.8L513.659,457.7C529.759,473.3 539.859,485.3 551.659,502.8C566.859,525.5 582.459,556.5 586.659,572.5C587.859,576.9 587.759,577.6 584.159,586.9C574.159,612.6 572.559,621.9 574.359,644.9C576.359,671.6 584.059,695.9 597.459,718.6C603.259,728.5 603.259,728 598.859,741.7C589.859,769.3 574.059,800.5 558.159,821.7C552.259,829.6 536.759,848.2 536.059,848.2C535.859,848.2 532.959,846.6 529.759,844.7C519.359,838.6 512.459,838.3 504.959,843.4C499.059,847.4 497.059,855.2 499.659,863.3C500.259,865.2 505.759,874 511.659,882.9C532.559,914 541.759,937.4 545.559,969C546.259,974.1 546.459,979 546.159,979.8C545.259,982 540.959,981.5 526.859,977.2C481.859,963.6 445.159,943.6 415.359,916.2L408.659,910.1L394.759,912.7C387.059,914.1 380.159,915.2 379.459,915.2C377.159,915.2 380.459,912.9 393.559,905.2C421.759,888.7 436.159,877.6 456.559,856.6C489.159,823.2 505.959,792.7 514.059,752.7C516.859,738.9 518.259,721 517.159,714.8C515.659,706.9 505.959,700.3 497.459,701.5C491.559,702.3 487.359,705.6 474.059,720.3C462.559,732.8 445.159,749.3 433.759,758.2C417.359,771 383.559,789.5 361.559,797.5C303.959,818.7 241.559,822.6 184.059,808.7C162.459,803.4 143.759,796.9 126.659,788.6C101.159,776.3 87.459,766.8 68.959,748.4C52.859,732.5 46.259,721.3 42.059,702.6C38.459,686.4 37.559,675.5 37.559,648.8C37.559,622.9 38.259,615.2 42.159,597.3C50.859,558.3 67.559,522.1 91.259,491.1C95.259,485.8 104.359,475.5 111.359,468.1C144.359,433.6 180.659,410.3 223.559,395.9C247.859,387.8 279.859,382.5 305.459,382.3L319.759,382.2L319.159,384.6ZM172.259,717.2C166.259,718.3 161.059,722.1 159.559,726.7C158.059,731.1 159.659,736.1 165.359,745.6C167.559,749.3 171.059,757.1 173.159,763C178.059,777 179.759,780.3 183.959,783.9C188.659,788.1 193.659,789.6 200.259,788.8C210.859,787.6 213.959,784.6 220.059,769.7C222.559,763.8 226.959,755 229.959,750.2C236.759,739.3 237.059,738.1 234.559,735C230.259,729.4 212.459,720.5 201.459,718.4C193.659,716.8 177.859,716.2 172.259,717.2ZM258.559,668.4C250.459,672.5 247.359,682.8 251.459,691.9C253.859,697.2 256.559,698.9 265.159,700.7C282.359,704.3 344.959,713 356.259,713.4C361.159,713.6 363.059,713.2 365.259,711.6C369.359,708.7 372.559,701.7 372.559,696C372.559,687.2 368.859,681.8 361.859,680.1C353.359,678.2 284.759,668.2 269.559,666.7C263.959,666.2 262.459,666.4 258.559,668.4ZM87.459,630C80.759,633.1 76.559,640.1 76.559,648.2C76.559,658.7 78.659,660.3 106.559,670.7C131.659,680 149.159,685.5 151.759,684.8C159.959,682.7 166.159,673.3 165.359,664.2C164.559,655.8 162.859,654.5 142.459,646.4C108.559,633 91.759,628 87.459,630Z" style="fill:rgb(192,228,244);"/>
    </g>
    <g transform="matrix(0.05,0,0,-0.05,0.0372198,511.968)">
        <path d="M3354,10229C3294,10221 3228,10180 3182,10123C3113,10035 2918,9713 2600,9160C2035,8179 1738,7560 1645,7165C1607,7006 1590,6843 1590,6645C1590,6451 1598,6370 1665,5870L1708,5545L1640,5435C1373,5002 1221,4607 1148,4155C1127,4026 1131,3477 1153,3320C1219,2866 1338,2513 1573,2087L1643,1958L1557,1787C1335,1346 1301,1024 1461,887C1525,832 1599,808 1719,802C1970,791 2195,851 2498,1011L2613,1071L2742,1014C2983,910 3144,867 3518,810C4294,689 4558,673 5015,716L5075,721L5215,624C5434,471 5580,384 5775,289C6238,65 6657,-41 6811,27C6866,52 6922,106 6951,162C7003,264 6999,530 6940,835C6923,922 6912,1000 6914,1007C6917,1014 6984,1051 7062,1089C7233,1173 7342,1240 7514,1368L7643,1464L7719,1422C7998,1265 8303,1154 8592,1106C8708,1086 8861,1083 8916,1100C8984,1120 9045,1172 9076,1237C9102,1290 9105,1304 9104,1395C9102,1605 8959,2041 8770,2415C8669,2617 8588,2748 8463,2914L8371,3037L8396,3098C8496,3347 8504,3688 8415,3995L8391,4078L8469,4252C8679,4712 8854,5234 8906,5555C8945,5797 8898,5923 8744,5991C8700,6011 8683,6011 8252,6007C7839,6004 7798,6002 7712,5982C7419,5914 7204,5806 6989,5617L6894,5533L6719,5733C6623,5842 6534,5946 6521,5962L6497,5992L6786,6283C7420,6922 7542,7056 7973,7594C8423,8154 8671,8515 8825,8832C8955,9101 8985,9256 8930,9365C8901,9421 8834,9473 8767,9491C8691,9511 8560,9467 8120,9275C6932,8756 5704,8114 5195,7746C5022,7621 4891,7489 4792,7340C4729,7245 4599,6997 4549,6876L4516,6798L4406,6805C4346,6809 4292,6814 4285,6816C4277,6820 4275,6903 4278,7128C4284,7515 4271,7618 4149,8155C4019,8725 3699,9927 3639,10067C3618,10117 3558,10185 3516,10207C3474,10229 3416,10237 3354,10229ZM3549,8910C3767,8033 3860,7581 3876,7320C3881,7222 3862,6909 3844,6822C3836,6781 3827,6777 3685,6750C3509,6716 3306,6663 3147,6608C3065,6581 2996,6561 2993,6563C2991,6566 3009,6712 3035,6887C3100,7335 3323,8834 3370,9142C3392,9284 3410,9405 3410,9412C3411,9451 3439,9350 3549,8910ZM3000,8348C2928,7857 2835,7222 2792,6938L2715,6421L2588,6341C2439,6248 2361,6191 2185,6047C2114,5988 2052,5940 2049,5940C2042,5940 2037,5966 2008,6180C1983,6370 1973,6746 1989,6872C2053,7349 2356,7999 3036,9111C3085,9192 3126,9254 3128,9249C3130,9245 3072,8839 3000,8348ZM8470,8983C8470,8956 8232,8574 8098,8388C7994,8243 7821,8017 7743,7924L7699,7872L7657,7882C7601,7895 7489,7885 7409,7860C7283,7822 7190,7754 6705,7351C6319,7030 5687,6530 5614,6487C5605,6482 4935,6702 4923,6713C4916,6720 5098,7076 5146,7146C5176,7192 5235,7261 5278,7300C5582,7582 6903,8299 8155,8862C8436,8989 8470,9002 8470,8983ZM7469,7603C7337,7432 7018,7089 6396,6450C5758,5796 5689,5721 5520,5505C5412,5367 5386,5350 5280,5343L5198,5337L5215,5371C5266,5470 5542,5970 5598,6065C5709,6252 5811,6342 6495,6860C6600,6939 6811,7106 6965,7230C7381,7566 7520,7669 7469,7603ZM4326,6386C4323,6373 4276,6262 4221,6138C4099,5860 4089,5833 4082,5743C4072,5591 4133,5457 4276,5319C4490,5114 4860,4967 5195,4953C5396,4945 5505,4971 5614,5052C5645,5075 5771,5204 5894,5339C6017,5474 6143,5610 6174,5640L6230,5694L6271,5655C6432,5499 6533,5379 6651,5204C6803,4977 6959,4667 7001,4507C7013,4463 7012,4456 6976,4363C6876,4106 6860,4013 6878,3783C6898,3516 6975,3273 7109,3046C7167,2947 7167,2952 7123,2815C7033,2539 6875,2227 6716,2015C6657,1936 6502,1750 6495,1750C6493,1750 6464,1766 6432,1785C6328,1846 6259,1849 6184,1798C6125,1758 6105,1680 6131,1599C6137,1580 6192,1492 6251,1403C6460,1092 6552,858 6590,542C6597,491 6599,442 6596,434C6587,412 6544,417 6403,460C5953,596 5586,796 5288,1070L5221,1131L5082,1105C5005,1091 4936,1080 4929,1080C4906,1080 4939,1103 5070,1180C5352,1345 5496,1456 5700,1666C6026,2000 6194,2305 6275,2705C6303,2843 6317,3022 6306,3084C6291,3163 6194,3229 6109,3217C6050,3209 6008,3176 5875,3029C5760,2904 5586,2739 5472,2650C5308,2522 4970,2337 4750,2257C4174,2045 3550,2006 2975,2145C2759,2198 2572,2263 2401,2346C2146,2469 2009,2564 1824,2748C1663,2907 1597,3019 1555,3206C1519,3368 1510,3477 1510,3744C1510,4003 1517,4080 1556,4259C1643,4649 1810,5011 2047,5321C2087,5374 2178,5477 2248,5551C2578,5896 2941,6129 3370,6273C3613,6354 3933,6407 4189,6409L4332,6410L4326,6386ZM5065,6300C5214,6250 5341,6206 5349,6201C5359,6194 5346,6166 5290,6071C5250,6004 5213,5947 5208,5944C5203,5941 5167,5948 5127,5960C5007,5995 4701,6102 4685,6114C4671,6124 4675,6139 4715,6238C4765,6364 4777,6390 4788,6390C4792,6390 4917,6349 5065,6300ZM4969,5594C4974,5590 4899,5400 4893,5400C4874,5400 4700,5481 4645,5515C4529,5587 4471,5666 4485,5730L4491,5759L4728,5678C4858,5634 4967,5596 4969,5594ZM8484,5610L8523,5610L8517,5563C8494,5375 8189,4510 8146,4510C8140,4510 8098,4536 8054,4569C7888,4691 7813,4722 7605,4754C7589,4756 7524,4754 7462,4747C7365,4738 7347,4739 7334,4752C7326,4760 7286,4843 7246,4936C7206,5029 7161,5128 7147,5157L7121,5208L7186,5269C7279,5357 7336,5400 7428,5454C7530,5514 7659,5566 7753,5587C7832,5604 8192,5621 8350,5614C8402,5612 8463,5610 8484,5610ZM7630,4349C7630,4343 7615,4292 7596,4237C7577,4181 7556,4100 7551,4057C7506,3726 7613,3356 7825,3115C7855,3081 7880,3050 7880,3046C7880,3043 7838,3040 7788,3040C7683,3040 7636,3056 7563,3116C7404,3247 7260,3610 7260,3883C7260,4093 7349,4273 7483,4336C7537,4361 7630,4369 7630,4349ZM8004,3998C8071,3859 8081,3811 8087,3604C8090,3491 8089,3416 8082,3405C8074,3389 8069,3392 8044,3431C8029,3455 7999,3518 7977,3570L7937,3665L7932,3852C7928,4038 7932,4090 7950,4090C7955,4090 7980,4048 8004,3998ZM8184,2664C8286,2526 8414,2288 8510,2061C8607,1829 8722,1489 8707,1474C8698,1464 8453,1520 8330,1561C8175,1611 8011,1689 7811,1808C7726,1859 7642,1902 7625,1906C7577,1915 7538,1893 7385,1770C7160,1589 6940,1455 6807,1415C6715,1388 6717,1410 6821,1525C7111,1846 7293,2145 7440,2541C7467,2613 7493,2677 7498,2682C7503,2687 7540,2683 7591,2671C7780,2627 7879,2634 8028,2699C8076,2720 8120,2736 8125,2733C8131,2731 8157,2700 8184,2664ZM5789,2388C5757,2327 5625,2122 5602,2098C5588,2082 5569,2070 5560,2070C5552,2070 5521,2086 5492,2105C5455,2130 5442,2145 5447,2154C5462,2180 5789,2424 5798,2416C5800,2414 5796,2401 5789,2388ZM2030,2108C2074,2078 2088,2054 2072,2038C2058,2024 2026,2050 1997,2099C1975,2136 1985,2138 2030,2108ZM5190,1972C5259,1931 5379,1846 5380,1838C5381,1819 5025,1552 5013,1564C5007,1570 5071,1943 5081,1963C5090,1978 5121,1997 5140,1999C5143,1999 5165,1987 5190,1972ZM2444,1867C2486,1792 2583,1554 2578,1539C2572,1521 2250,1776 2250,1799C2250,1814 2390,1941 2400,1935C2405,1932 2425,1901 2444,1867ZM4770,1830C4770,1785 4740,1527 4734,1521C4729,1515 4599,1633 4529,1707L4467,1774L4498,1787C4531,1800 4750,1869 4763,1870C4767,1870 4770,1852 4770,1830ZM2868,1799C2923,1787 2973,1774 2981,1770C2999,1758 2985,1733 2901,1628L2836,1545L2809,1630C2761,1783 2751,1820 2760,1820C2765,1820 2814,1811 2868,1799ZM3886,1687C3891,1673 3856,1571 3800,1436C3770,1363 3766,1359 3753,1376C3724,1415 3588,1671 3593,1676C3598,1681 3751,1694 3848,1699C3867,1699 3883,1694 3886,1687ZM3422,1443C3532,1252 3557,1203 3547,1194C3533,1180 3135,1274 3052,1310C3014,1327 3010,1332 3019,1349C3035,1378 3176,1567 3228,1629L3274,1682L3294,1655C3306,1640 3363,1544 3422,1443ZM4520,1340C4520,1322 4457,1301 4275,1255C4081,1206 4000,1193 4000,1209C4000,1228 4150,1601 4183,1664C4192,1682 4210,1667 4356,1517C4446,1426 4520,1346 4520,1340ZM1982,1532C2086,1449 2210,1330 2210,1314C2210,1297 2186,1284 2108,1260C1999,1227 1906,1209 1829,1207L1755,1205L1757,1243C1761,1299 1884,1590 1904,1590C1907,1590 1942,1564 1982,1532Z" style="fill:rgb(34,34,34);fill-rule:nonzero;"/>
        <path d="M2009,3932C1942,3901 1900,3831 1900,3750C1900,3645 1921,3629 2200,3525C2451,3432 2626,3377 2652,3384C2734,3405 2796,3499 2788,3590C2780,3674 2763,3687 2559,3768C2220,3902 2052,3952 2009,3932Z" style="fill:rgb(34,34,34);fill-rule:nonzero;"/>
        <path d="M3720,3548C3639,3507 3608,3404 3649,3313C3673,3260 3700,3243 3786,3225C3958,3189 4584,3102 4697,3098C4746,3096 4765,3100 4787,3116C4828,3145 4860,3215 4860,3272C4860,3360 4823,3414 4753,3431C4668,3450 3982,3550 3830,3565C3774,3570 3759,3568 3720,3548Z" style="fill:rgb(34,34,34);fill-rule:nonzero;"/>
        <path d="M2857,3060C2797,3049 2745,3011 2730,2965C2715,2921 2731,2871 2788,2776C2810,2739 2845,2661 2866,2602C2915,2462 2932,2429 2974,2393C3021,2351 3071,2336 3137,2344C3243,2356 3274,2386 3335,2535C3360,2594 3404,2682 3434,2730C3502,2839 3505,2851 3480,2882C3437,2938 3259,3027 3149,3048C3071,3064 2913,3070 2857,3060ZM3075,2749C3147,2731 3171,2718 3185,2689C3214,2634 3195,2521 3153,2493C3132,2479 3127,2479 3105,2494C3073,2515 3011,2646 3003,2709C2996,2767 3000,2769 3075,2749Z" style="fill:rgb(34,34,34);fill-rule:nonzero;"/>
        <g transform="matrix(12.6421,0,0,-12.6413,1123.6,10239.4)">
            <path d="M88.61,370.622C124.31,333.522 168.31,310.922 215.61,305.122C232.11,303.122 234.71,302.922 245.41,302.722C254.11,302.522 254.21,302.522 253.51,304.722C252.61,307.722 240.81,334.122 237.71,340.322C236.31,343.122 234.61,348.522 233.91,352.322C232.647,359.681 233.676,366.828 236.98,373.765C216.788,405.167 172.406,644.287 88.61,370.622Z" style="fill:rgb(142,190,227);"/>
        </g>
        <g transform="matrix(12.6421,0,0,-12.6413,1123.59,10239.4)">
            <path d="M97.555,399.541C108.972,396.033 123.267,409.541 129.458,429.688C135.648,449.834 131.404,469.039 119.987,472.547C108.57,476.055 94.274,462.547 88.084,442.401C81.894,422.254 86.137,403.05 97.555,399.541Z" style="fill:white;"/>
        </g>
        <g transform="matrix(5.88137,0,0,-5.88137,3314.26,7538.95)">
            <circle cx="804.662" cy="353.855" r="16.111" style="fill:white;"/>
        </g>
        <g transform="matrix(10,0,0,-10,138.654,8829.68)">
            <circle cx="769.407" cy="363.238" r="11.754" style="fill:white;"/>
        </g>
        <g transform="matrix(9.19342,0,0,-9.19342,759.244,8536.7)">
            <circle cx="769.407" cy="363.238" r="11.754" style="fill:rgb(142,190,227);"/>
        </g>
    </g>
</svg>
