<?xml version="1.0" encoding="UTF-8" standalone="no"?>
<!DOCTYPE svg PUBLIC "-//W3C//DTD SVG 1.1//EN" "http://www.w3.org/Graphics/SVG/1.1/DTD/svg11.dtd">
<svg width="100%" height="100%" viewBox="0 0 512 512" version="1.1" xmlns="http://www.w3.org/2000/svg" xmlns:xlink="http://www.w3.org/1999/xlink" xml:space="preserve" xmlns:serif="http://www.serif.com/" style="fill-rule:evenodd;clip-rule:evenodd;stroke-linejoin:round;stroke-miterlimit:2;">
    <g transform="matrix(0.632105,0,0,0.632065,56.2168,-0.00284392)">
        <path d="M88.61,370.622C124.31,333.522 168.31,310.922 215.61,305.122C232.11,303.122 234.71,302.922 245.41,302.722C254.11,302.522 254.21,302.522 253.51,304.722C252.61,307.722 240.81,334.122 237.71,340.322C236.31,343.122 234.61,348.522 233.91,352.322C232.647,359.681 233.676,366.828 236.98,373.765C216.788,405.167 172.406,644.287 88.61,370.622Z" style="fill:rgb(142,190,227);"/>
    </g>
    <g transform="matrix(0.632105,0,0,0.632065,56.2168,-0.00284392)">
        <path d="M76.01,646.522C76.01,647.322 75.61,648.922 75.21,649.922C74.51,651.622 73.91,651.222 70.31,646.322C68.01,643.322 66.11,640.522 66.11,640.222C66.11,639.822 68.31,640.722 71.11,642.322C73.81,643.822 76.01,645.722 76.01,646.522Z" style="fill:rgb(160,165,170);"/>
    </g>
    <g transform="matrix(0.632105,0,0,0.632065,56.2168,-0.00284392)">
        <path d="M105.51,663.222C110.01,672.422 116.31,688.322 115.91,689.722C115.51,690.922 97.61,676.922 92.11,671.122L88.71,667.522L94.11,662.022C97.11,659.022 100.11,656.522 100.81,656.522C101.51,656.522 103.61,659.522 105.51,663.222Z" style="fill:rgb(160,165,170);"/>
    </g>
    <g transform="matrix(0.632105,0,0,0.632065,56.2168,-0.00284392)">
        <path d="M148.91,670.122C149.11,670.222 146.21,674.422 142.51,679.522C137.91,685.722 135.51,688.322 135.11,687.322C134.71,686.622 133.21,681.922 131.71,676.922C130.31,671.922 128.91,667.122 128.61,666.322C128.21,665.222 130.11,665.422 138.31,667.422C144.01,668.722 148.71,670.022 148.91,670.122Z" style="fill:rgb(160,165,170);"/>
    </g>
    <g transform="matrix(0.632105,0,0,0.632065,56.2168,-0.00284392)">
        <path d="M174.11,682.222C180.71,693.222 193.11,715.022 193.11,715.622C193.11,717.522 161.41,710.722 152.31,706.822L148.01,705.022L158.71,690.722C164.51,682.922 169.61,676.522 170.01,676.522C170.31,676.522 172.21,679.122 174.11,682.222Z" style="fill:rgb(160,165,170);"/>
    </g>
    <g transform="matrix(0.632105,0,0,0.632065,56.2168,-0.00284392)">
        <path d="M219.61,677.222C219.21,678.222 217.41,682.822 215.61,687.522C213.81,692.222 211.51,697.822 210.61,699.922L208.91,703.822L201.61,690.422L194.21,677.022L201.41,676.422C205.41,676.122 211.21,675.822 214.51,675.722C219.71,675.522 220.21,675.722 219.61,677.222Z" style="fill:rgb(160,165,170);"/>
    </g>
    <g transform="matrix(0.632105,0,0,0.632065,56.2168,-0.00284392)">
        <path d="M270.11,704.622C270.11,705.422 250.81,711.322 242.61,712.922C229.41,715.522 225.81,715.822 226.41,714.322C226.71,713.522 230.41,704.622 234.71,694.622L242.51,676.422L256.31,690.222C263.91,697.822 270.11,704.322 270.11,704.622Z" style="fill:rgb(160,165,170);"/>
    </g>
    <g transform="matrix(0.632105,0,0,0.632065,56.2168,-0.00284392)">
        <path d="M289.11,662.222C289.01,665.422 286.01,690.022 285.61,690.422C285.31,690.722 280.11,686.022 274.11,680.022L263.11,669.122L274.81,665.822C281.21,663.922 286.71,662.222 287.01,662.022C287.71,661.222 289.11,661.422 289.11,662.222Z" style="fill:rgb(160,165,170);"/>
    </g>
    <g transform="matrix(0.632105,0,0,0.632065,56.2168,-0.00284392)">
        <path d="M327.71,657.522C332.61,660.922 336.71,663.922 336.81,664.322C337.11,665.422 324.01,676.322 315.31,682.322C310.01,686.022 307.51,687.222 307.31,686.222C307.01,685.022 311.91,654.322 312.41,653.922C314.11,652.822 316.91,651.622 317.71,651.522C318.41,651.522 322.91,654.222 327.71,657.522Z" style="fill:rgb(160,165,170);"/>
    </g>
    <g transform="matrix(0.632105,0,0,0.632065,56.2168,-0.00284392)">
        <path d="M367.41,624.222C362.71,633.122 355.71,643.622 353.21,645.922C351.31,647.722 351.11,647.622 345.71,643.922C342.61,641.722 340.11,639.822 340.21,639.522C340.21,639.222 343.41,637.022 347.31,634.522C351.11,632.022 357.71,627.222 361.91,623.822C366.21,620.422 369.91,617.622 370.31,617.522C370.71,617.522 369.41,620.522 367.41,624.222Z" style="fill:rgb(160,165,170);"/>
    </g>
    <g transform="matrix(0.632105,0,0,0.632065,56.2168,-0.00284392)">
        <path d="M544.41,493.222C550.51,506.522 551.61,511.422 551.61,527.222C551.61,535.022 551.31,541.722 550.91,542.122C549.11,543.922 542.21,531.622 539.51,521.822C536.41,510.322 536.71,485.522 540.01,485.522C540.41,485.522 542.41,489.022 544.41,493.222Z" style="fill:rgb(160,165,170);"/>
    </g>
    <g transform="matrix(0.632105,0,0,0.632065,56.2168,-0.00284392)">
        <path d="M515.91,465.222C512.21,472.422 509.91,478.922 508.51,485.722C503.41,510.722 513.41,547.222 529.71,563.222L536.01,569.422L532.51,570.122C527.71,571.022 519.01,570.022 515.51,568.222C491.81,555.822 477.11,505.422 489.71,480.322C494.91,469.922 502.31,464.622 511.41,464.522C514.11,464.522 516.11,464.822 515.91,465.222Z" style="fill:rgb(160,165,170);"/>
    </g>
    <g transform="matrix(0.632105,0,0,0.632065,56.2168,-0.00284392)">
        <path d="M75.41,695.022C86.91,704.922 88.01,706.122 86.41,707.322C82.51,710.122 60.81,715.522 53.11,715.522C50.11,715.522 49.11,715.122 49.11,713.922C49.11,709.222 60.21,683.022 61.91,683.722C62.31,683.922 68.41,688.922 75.41,695.022Z" style="fill:rgb(192,228,244);"/>
    </g>
    <g transform="matrix(0.632105,0,0,0.632065,56.2168,-0.00284392)">
        <path d="M563.21,606.022C570.51,617.022 579.41,634.322 585.71,649.622C591.11,662.822 598.51,684.222 599.51,689.822L600.21,693.622L595.41,693.022C573.81,690.022 548.01,679.922 528.41,666.722C517.31,659.222 516.01,658.522 513.41,658.522C509.31,658.522 506.11,660.422 496.41,669.122C483.91,680.122 469.81,689.522 457.41,695.122C446.71,699.922 444.61,700.322 443.71,697.922C443.21,696.722 444.81,694.722 449.01,690.922C461.01,680.022 475.81,659.622 486.71,639.022C492.11,628.722 500.01,609.622 502.31,601.222C503.21,597.622 503.91,596.522 505.11,596.922C523.91,603.222 535.91,602.822 548.61,595.522L553.61,592.722L555.41,594.822C556.41,596.022 559.91,601.022 563.21,606.022Z" style="fill:rgb(192,228,244);"/>
    </g>
    <g transform="matrix(0.632105,0,0,0.632065,56.2168,-0.00284392)">
        <path d="M253.51,304.722C252.61,307.722 240.81,334.122 237.71,340.322C236.31,343.122 234.61,348.522 233.91,352.322C231.61,365.722 236.91,378.422 249.71,390.422C264.81,404.522 290.91,415.422 317.21,418.622C332.61,420.522 346.11,417.522 356.21,410.122C358.81,408.222 365.41,401.322 370.91,394.822C384.01,379.422 401.91,360.122 403.51,359.722C405.01,359.422 418.51,373.222 427.11,384.022C436.41,395.722 446.61,411.522 452.81,424.022C458.41,435.122 466.11,454.222 466.11,457.122C466.11,457.922 464.11,462.722 461.61,467.822C454.31,482.922 452.51,499.022 455.71,520.322C458.31,538.022 465.61,558.022 473.91,570.222L477.91,576.022L475.41,584.522C467.01,614.022 450.51,643.922 430.91,664.922L424.61,671.822L419.91,668.522C408.61,660.522 394.91,665.822 394.71,678.222C394.61,683.622 396.61,687.522 405.51,698.822C420.01,717.422 431.01,745.322 432.71,768.522C433.31,775.922 433.11,777.522 432.01,777.522C429.41,777.522 412.71,772.722 403.11,769.222C373.01,758.222 348.41,743.922 331.01,727.122L324.21,720.422L314.21,722.522C308.81,723.622 302.81,724.522 300.91,724.522C298.01,724.522 299.01,723.722 308.81,718.622C336.11,704.322 359.11,685.022 378.31,660.022C395.31,638.122 403.91,618.422 408.71,590.522C412.51,568.622 411.41,562.022 403.21,557.222C399.31,554.922 392.61,554.722 388.51,556.822C386.91,557.622 383.21,561.422 380.41,565.222C373.51,574.422 354.71,592.622 343.11,601.222C307.61,627.522 265.91,642.722 218.41,646.622C170.51,650.522 115.51,637.122 78.31,612.422C66.91,604.822 49.51,588.522 42.91,579.122C37.61,571.522 35.01,564.222 32.71,550.722C27.41,520.522 29.11,486.622 37.11,459.722C47.41,424.922 64.21,395.922 88.61,370.622C172.406,644.287 216.788,405.167 236.98,373.765C253.48,371.765 261.206,329.422 253.51,304.722C262.21,304.522 254.21,302.522 253.51,304.722ZM71.91,498.022C63.61,500.722 58.11,508.622 60.11,515.422C62.61,524.322 64.31,525.022 82.11,525.022L96.61,525.022L104.11,528.822C108.21,530.922 113.61,533.722 116.11,535.122C122.81,538.822 129.01,537.022 133.11,530.222C142.31,515.122 119.01,497.922 88.11,496.922C79.71,496.622 75.31,496.922 71.91,498.022ZM236.61,521.222C229.91,522.122 222.91,524.722 219.71,527.622C213.21,533.322 212.61,541.622 218.21,548.022C222.31,552.622 226.11,553.222 237.91,551.022C251.21,548.522 260.01,549.722 272.91,556.022C278.11,558.522 283.41,560.522 284.71,560.522C288.61,560.522 293.61,558.022 295.81,554.922C306.11,540.122 288.31,525.222 256.11,521.522C247.61,520.522 242.31,520.422 236.61,521.222ZM114.91,565.522C111.91,568.522 111.91,568.722 112.31,577.022C112.91,588.322 116.61,595.922 125.81,604.522C133.21,611.422 140.01,615.022 148.81,616.722C156.31,618.122 167.81,615.922 177.01,611.422C188.51,605.722 200.11,591.922 200.11,583.922C200.11,578.322 197.11,576.822 178.01,572.622C145.51,565.322 130.41,562.522 124.21,562.522C118.61,562.522 117.61,562.822 114.91,565.522Z" style="fill:rgb(192,228,244);"/>
    </g>
    <g transform="matrix(0.632105,0,0,0.632065,56.2168,-0.00284392)">
        <path d="M586.11,366.322C586.11,367.822 578.21,396.122 575.11,406.022C569.71,422.922 557.91,452.022 555.61,454.322C555.31,454.622 553.21,453.022 550.71,450.722C536.61,437.722 518.81,431.822 501.21,434.322C497.01,434.922 492.91,435.622 492.11,436.022C490.91,436.422 490.01,434.722 488.11,428.822C486.71,424.522 483.11,415.822 479.91,409.522L474.31,398.022L477.91,394.222C490.41,381.222 509.41,370.622 527.11,367.022C534.31,365.622 586.11,364.922 586.11,366.322Z" style="fill:rgb(142,190,227);"/>
    </g>
    <g transform="matrix(0.632105,0,0,0.632065,56.2168,-0.00284392)">
        <path d="M581.11,99.222C581.11,100.522 573.51,114.022 567.01,124.322C549.61,152.122 529.81,177.422 488.71,224.522C465.21,251.422 463.71,252.922 410.31,306.822L362.91,354.622L322.21,341.022C299.91,333.622 281.01,327.122 280.41,326.722C279.41,326.122 282.71,317.922 292.51,295.922C317.21,240.322 319.91,236.522 343.61,220.522C389.71,189.622 475.21,144.922 565.61,104.422C578.41,98.722 581.11,97.722 581.11,99.222Z" style="fill:rgb(142,190,227);"/>
    </g>
    <g transform="matrix(0.632105,0,0,0.632065,56.2168,-0.00284392)">
        <path d="M299.11,365.522C317.01,371.622 334.31,377.522 337.51,378.722L343.41,380.922L339.81,384.222C337.61,386.122 335.01,387.622 333.41,387.622C331.81,387.722 329.71,387.822 328.61,388.022C324.41,388.422 311.01,386.622 302.91,384.522C298.41,383.422 290.61,380.422 285.61,378.022C271.31,371.122 264.21,363.822 265.61,357.422C266.01,355.822 266.41,354.522 266.51,354.522C266.61,354.522 281.31,359.522 299.11,365.522Z" style="fill:rgb(250,224,118);"/>
    </g>
    <g transform="matrix(0.632105,0,0,0.632065,56.2168,-0.00284392)">
        <path d="M178.01,50.222C178.51,52.322 183.01,69.722 188.01,89.022C199.01,131.522 205.81,160.222 211.11,186.322C218.71,223.922 219.61,236.122 216.71,259.522C215.81,266.322 215.11,272.522 215.11,273.122C215.11,273.822 211.81,274.722 206.91,275.522C158.81,282.422 112.91,304.122 79.01,336.022C75.61,339.122 72.81,341.522 72.61,341.322C72.51,341.122 71.81,336.722 71.21,331.522C70.61,326.322 69.41,316.822 68.61,310.522C66.51,295.422 66.61,274.022 68.71,261.722C71.91,242.922 79.01,222.822 93.31,192.022C103.81,169.422 112.81,153.122 134.61,116.522C144.61,99.722 158.11,77.122 164.61,66.222C171.11,55.422 176.51,46.522 176.71,46.522C176.91,46.522 177.51,48.222 178.01,50.222Z" style="fill:rgb(250,224,118);"/>
    </g>
    <g transform="matrix(1,0,0,1,-60,-149)">
        <g transform="matrix(0.632105,0,0,0.632065,116.217,148.997)">
            <path d="M175.01,0.422C165.71,3.422 162.71,7.022 145.41,36.022C109.61,95.722 77.61,153.422 63.81,183.122C43.91,225.622 37.31,248.422 36.41,277.122C35.81,294.822 36.21,299.722 42.21,342.622L46.21,371.322L40.81,379.622C29.21,397.422 15.91,425.622 9.71,445.522C2.71,468.022 0.01,486.822 0.01,512.522C0.01,563.922 13.21,610.022 40.51,653.822C41.31,655.022 41.31,656.022 40.41,657.322C28.91,673.622 18.11,703.922 18.11,719.922C18.11,735.522 27.61,745.422 44.21,747.122C52.71,747.922 69.11,746.022 80.01,742.922C88.11,740.622 106.21,732.322 114.11,727.422L117.71,725.222L125.41,728.922C145.61,738.422 166.91,743.922 198.01,747.522C207.11,748.622 219.81,750.322 226.21,751.422C248.71,755.322 276.81,756.522 297.61,754.522C303.11,754.022 308.81,753.322 310.21,753.022C312.21,752.522 314.11,753.522 319.21,757.622C342.81,776.522 376.21,793.722 409.11,803.922C430.41,810.522 442.01,811.622 450.71,808.022C455.81,805.922 461.01,799.722 462.81,793.622C465.91,782.722 464.21,757.722 459.01,738.622C457.91,734.522 457.21,730.622 457.51,729.922C457.71,729.322 459.71,728.122 461.81,727.522C473.81,723.522 493.61,711.922 506.21,701.422C509.71,698.422 513.31,695.422 514.21,694.722C515.61,693.722 516.71,694.022 521.21,697.122C543.01,711.822 583.01,724.522 607.71,724.522C622.41,724.522 632.11,715.122 632.11,700.822C632.11,686.322 619.21,646.722 605.41,619.022C596.31,600.922 587.91,587.822 575.71,573.022L573.21,569.922L575.51,565.022C583.21,548.622 584.11,515.222 577.31,495.122L574.61,487.122L579.71,476.922C598.41,439.322 617.11,380.122 617.11,358.222C617.11,346.322 611.41,338.222 600.71,335.022C594.61,333.222 552.91,332.922 535.21,334.622C507.31,337.222 482.21,348.122 463.41,365.822L456.51,372.422L450.01,364.722C446.51,360.522 439.41,352.422 434.21,346.722L424.81,336.422L450.71,310.722C489.41,272.322 508.51,251.122 542.01,209.522C584.41,156.922 608.31,120.122 617.11,93.522C622.91,76.422 619.71,65.022 607.91,60.022C599.61,56.622 594.31,58.222 553.11,76.222C472.51,111.622 392.81,151.922 345.61,181.322C313.61,201.222 301.61,211.422 290.21,228.522C284.01,237.822 274.11,257.122 270.41,267.022L268.51,272.022L259.01,271.722C253.91,271.522 249.31,271.022 248.91,270.722C248.51,270.322 248.81,264.122 249.71,257.022C253.71,224.222 248.11,193.322 217.41,77.522C206.21,35.222 201.21,17.622 199.01,13.222C196.51,8.322 192.61,3.922 189.11,2.022C185.71,0.322 178.21,-0.578 175.01,0.422ZM178.01,50.222C178.51,52.322 183.01,69.722 188.01,89.022C199.01,131.522 205.81,160.222 211.11,186.322C218.71,223.922 219.61,236.122 216.71,259.522C215.81,266.322 215.11,272.522 215.11,273.122C215.11,273.822 211.81,274.722 206.91,275.522C158.81,282.422 112.91,304.122 79.01,336.022C75.61,339.122 72.81,341.522 72.61,341.322C72.51,341.122 71.81,336.722 71.21,331.522C70.61,326.322 69.41,316.822 68.61,310.522C66.51,295.422 66.61,274.022 68.71,261.722C71.91,242.922 79.01,222.822 93.31,192.022C103.81,169.422 112.81,153.122 134.61,116.522C144.61,99.722 158.11,77.122 164.61,66.222C171.11,55.422 176.51,46.522 176.71,46.522C176.91,46.522 177.51,48.222 178.01,50.222ZM581.11,99.222C581.11,100.522 573.51,114.022 567.01,124.322C549.61,152.122 529.81,177.422 488.71,224.522C465.21,251.422 463.71,252.922 410.31,306.822L362.91,354.622L322.21,341.022C299.91,333.622 281.01,327.122 280.41,326.722C279.41,326.122 282.71,317.922 292.51,295.922C317.21,240.322 319.91,236.522 343.61,220.522C389.71,189.622 475.21,144.922 565.61,104.422C578.41,98.722 581.11,97.722 581.11,99.222ZM253.51,304.722C252.61,307.722 240.81,334.122 237.71,340.322C236.31,343.122 234.61,348.522 233.91,352.322C231.61,365.722 236.91,378.422 249.71,390.422C264.81,404.522 290.91,415.422 317.21,418.622C332.61,420.522 346.11,417.522 356.21,410.122C358.81,408.222 365.41,401.322 370.91,394.822C384.01,379.422 401.91,360.122 403.51,359.722C405.01,359.422 418.51,373.222 427.11,384.022C436.41,395.722 446.61,411.522 452.81,424.022C458.41,435.122 466.11,454.222 466.11,457.122C466.11,457.922 464.11,462.722 461.61,467.822C454.31,482.922 452.51,499.022 455.71,520.322C458.31,538.022 465.61,558.022 473.91,570.222L477.91,576.022L475.41,584.522C467.01,614.022 450.51,643.922 430.91,664.922L424.61,671.822L419.91,668.522C408.61,660.522 394.91,665.822 394.71,678.222C394.61,683.622 396.61,687.522 405.51,698.822C420.01,717.422 431.01,745.322 432.71,768.522C433.31,775.922 433.11,777.522 432.01,777.522C429.41,777.522 412.71,772.722 403.11,769.222C373.01,758.222 348.41,743.922 331.01,727.122L324.21,720.422L314.21,722.522C308.81,723.622 302.81,724.522 300.91,724.522C298.01,724.522 299.01,723.722 308.81,718.622C336.11,704.322 359.11,685.022 378.31,660.022C395.31,638.122 403.91,618.422 408.71,590.522C412.51,568.622 411.41,562.022 403.21,557.222C399.31,554.922 392.61,554.722 388.51,556.822C386.91,557.622 383.21,561.422 380.41,565.222C373.51,574.422 354.71,592.622 343.11,601.222C307.61,627.522 265.91,642.722 218.41,646.622C170.51,650.522 115.51,637.122 78.31,612.422C66.91,604.822 49.51,588.522 42.91,579.122C37.61,571.522 35.01,564.222 32.71,550.722C27.41,520.522 29.11,486.622 37.11,459.722C47.41,424.922 64.21,395.922 88.61,370.622C124.31,333.522 168.31,310.922 215.61,305.122C232.11,303.122 234.71,302.922 245.41,302.722C254.11,302.522 254.21,302.522 253.51,304.722ZM299.11,365.522C317.01,371.622 334.31,377.522 337.51,378.722L343.41,380.922L339.81,384.222C337.61,386.122 335.01,387.622 333.41,387.622C331.81,387.722 329.71,387.822 328.61,388.022C324.41,388.422 311.01,386.622 302.91,384.522C298.41,383.422 290.61,380.422 285.61,378.022C271.31,371.122 264.21,363.822 265.61,357.422C266.01,355.822 266.41,354.522 266.51,354.522C266.61,354.522 281.31,359.522 299.11,365.522ZM586.11,366.322C586.11,367.822 578.21,396.122 575.11,406.022C569.71,422.922 557.91,452.022 555.61,454.322C555.31,454.622 553.21,453.022 550.71,450.722C536.61,437.722 518.81,431.822 501.21,434.322C497.01,434.922 492.91,435.622 492.11,436.022C490.91,436.422 490.01,434.722 488.11,428.822C486.71,424.522 483.11,415.822 479.91,409.522L474.31,398.022L477.91,394.222C490.41,381.222 509.41,370.622 527.11,367.022C534.31,365.622 586.11,364.922 586.11,366.322ZM515.91,465.222C512.21,472.422 509.91,478.922 508.51,485.722C503.41,510.722 513.41,547.222 529.71,563.222L536.01,569.422L532.51,570.122C527.71,571.022 519.01,570.022 515.51,568.222C491.81,555.822 477.11,505.422 489.71,480.322C494.91,469.922 502.31,464.622 511.41,464.522C514.11,464.522 516.11,464.822 515.91,465.222ZM544.41,493.222C550.51,506.522 551.61,511.422 551.61,527.222C551.61,535.022 551.31,541.722 550.91,542.122C549.11,543.922 542.21,531.622 539.51,521.822C536.41,510.322 536.71,485.522 540.01,485.522C540.41,485.522 542.41,489.022 544.41,493.222ZM563.21,606.022C570.51,617.022 579.41,634.322 585.71,649.622C591.11,662.822 598.51,684.222 599.51,689.822L600.21,693.622L595.41,693.022C573.81,690.022 548.01,679.922 528.41,666.722C517.31,659.222 516.01,658.522 513.41,658.522C509.31,658.522 506.11,660.422 496.41,669.122C483.91,680.122 469.81,689.522 457.41,695.122C446.71,699.922 444.61,700.322 443.71,697.922C443.21,696.722 444.81,694.722 449.01,690.922C461.01,680.022 475.81,659.622 486.71,639.022C492.11,628.722 500.01,609.622 502.31,601.222C503.21,597.622 503.91,596.522 505.11,596.922C523.91,603.222 535.91,602.822 548.61,595.522L553.61,592.722L555.41,594.822C556.41,596.022 559.91,601.022 563.21,606.022ZM367.41,624.222C362.71,633.122 355.71,643.622 353.21,645.922C351.31,647.722 351.11,647.622 345.71,643.922C342.61,641.722 340.11,639.822 340.21,639.522C340.21,639.222 343.41,637.022 347.31,634.522C351.11,632.022 357.71,627.222 361.91,623.822C366.21,620.422 369.91,617.622 370.31,617.522C370.71,617.522 369.41,620.522 367.41,624.222ZM76.01,646.522C76.01,647.322 75.61,648.922 75.21,649.922C74.51,651.622 73.91,651.222 70.31,646.322C68.01,643.322 66.11,640.522 66.11,640.222C66.11,639.822 68.31,640.722 71.11,642.322C73.81,643.822 76.01,645.722 76.01,646.522ZM327.71,657.522C332.61,660.922 336.71,663.922 336.81,664.322C337.11,665.422 324.01,676.322 315.31,682.322C310.01,686.022 307.51,687.222 307.31,686.222C307.01,685.022 311.91,654.322 312.41,653.922C314.11,652.822 316.91,651.622 317.71,651.522C318.41,651.522 322.91,654.222 327.71,657.522ZM105.51,663.222C110.01,672.422 116.31,688.322 115.91,689.722C115.51,690.922 97.61,676.922 92.11,671.122L88.71,667.522L94.11,662.022C97.11,659.022 100.11,656.522 100.81,656.522C101.51,656.522 103.61,659.522 105.51,663.222ZM289.11,662.222C289.01,665.422 286.01,690.022 285.61,690.422C285.31,690.722 280.11,686.022 274.11,680.022L263.11,669.122L274.81,665.822C281.21,663.922 286.71,662.222 287.01,662.022C287.71,661.222 289.11,661.422 289.11,662.222ZM148.91,670.122C149.11,670.222 146.21,674.422 142.51,679.522C137.91,685.722 135.51,688.322 135.11,687.322C134.71,686.622 133.21,681.922 131.71,676.922C130.31,671.922 128.91,667.122 128.61,666.322C128.21,665.222 130.11,665.422 138.31,667.422C144.01,668.722 148.71,670.022 148.91,670.122ZM219.61,677.222C219.21,678.222 217.41,682.822 215.61,687.522C213.81,692.222 211.51,697.822 210.61,699.922L208.91,703.822L201.61,690.422L194.21,677.022L201.41,676.422C205.41,676.122 211.21,675.822 214.51,675.722C219.71,675.522 220.21,675.722 219.61,677.222ZM174.11,682.222C180.71,693.222 193.11,715.022 193.11,715.622C193.11,717.522 161.41,710.722 152.31,706.822L148.01,705.022L158.71,690.722C164.51,682.922 169.61,676.522 170.01,676.522C170.31,676.522 172.21,679.122 174.11,682.222ZM270.11,704.622C270.11,705.422 250.81,711.322 242.61,712.922C229.41,715.522 225.81,715.822 226.41,714.322C226.71,713.522 230.41,704.622 234.71,694.622L242.51,676.422L256.31,690.222C263.91,697.822 270.11,704.322 270.11,704.622ZM75.41,695.022C86.91,704.922 88.01,706.122 86.41,707.322C82.51,710.122 60.81,715.522 53.11,715.522C50.11,715.522 49.11,715.122 49.11,713.922C49.11,709.222 60.21,683.022 61.91,683.722C62.31,683.922 68.41,688.922 75.41,695.022Z" style="fill-rule:nonzero;"/>
        </g>
        <g transform="matrix(0.632105,0,0,0.632065,116.217,148.997)">
            <path d="M71.91,498.022C63.61,500.722 58.11,508.622 60.11,515.422C62.61,524.322 64.31,525.022 82.11,525.022L96.61,525.022L104.11,528.822C108.21,530.922 113.61,533.722 116.11,535.122C122.81,538.822 129.01,537.022 133.11,530.222C142.31,515.122 119.01,497.922 88.11,496.922C79.71,496.622 75.31,496.922 71.91,498.022Z" style="fill-rule:nonzero;"/>
        </g>
        <g transform="matrix(0.632105,0,0,0.632065,116.217,148.997)">
            <path d="M236.61,521.222C229.91,522.122 222.91,524.722 219.71,527.622C213.21,533.322 212.61,541.622 218.21,548.022C222.31,552.622 226.11,553.222 237.91,551.022C251.21,548.522 260.01,549.722 272.91,556.022C278.11,558.522 283.41,560.522 284.71,560.522C288.61,560.522 293.61,558.022 295.81,554.922C306.11,540.122 288.31,525.222 256.11,521.522C247.61,520.522 242.31,520.422 236.61,521.222Z" style="fill-rule:nonzero;"/>
        </g>
        <g transform="matrix(0.632105,0,0,0.632065,116.217,148.997)">
            <path d="M114.91,565.522C111.91,568.522 111.91,568.722 112.31,577.022C112.91,588.322 116.61,595.922 125.81,604.522C133.21,611.422 140.01,615.022 148.81,616.722C156.31,618.122 167.81,615.922 177.01,611.422C188.51,605.722 200.11,591.922 200.11,583.922C200.11,578.322 197.11,576.822 178.01,572.622C145.51,565.322 130.41,562.522 124.21,562.522C118.61,562.522 117.61,562.822 114.91,565.522Z" style="fill-rule:nonzero;"/>
        </g>
        <g transform="matrix(0.632105,0,0,0.632065,116.217,148.997)">
            <path d="M97.555,399.541C108.972,396.033 123.267,409.541 129.458,429.688C135.648,449.834 131.404,469.039 119.987,472.547C108.57,476.055 94.274,462.547 88.084,442.401C81.894,422.254 86.137,403.05 97.555,399.541Z" style="fill:white;"/>
        </g>
    </g>
</svg>
